HIERARCHY
ROOT Hips
{
	OFFSET 0.000001 107.585541 -0.292875
	CHANNELS 6 Xposition Yposition Zposition Xrotation Yrotation Zrotation
	JOINT Spine
	{
		OFFSET -0.023067 13.156998 0.957426
		CHANNELS 6 Xposition Yposition Zposition Xrotation Yrotation Zrotation
		JOINT Spine1
		{
			OFFSET 0.000000 9.894669 0.072741
			CHANNELS 3 Xrotation Yrotation Zrotation
			JOINT Spine2
			{
				OFFSET 0.000000 10.499985 -0.058234
				CHANNELS 3 Xrotation Yrotation Zrotation
				JOINT Neck
				{
					OFFSET -0.000000 26.776306 -4.691216
					CHANNELS 6 Xposition Yposition Zposition Xrotation Yrotation Zrotation
					JOINT Head
					{
						OFFSET 0.000000 14.063217 3.449322
						CHANNELS 6 Xposition Yposition Zposition Xrotation Yrotation Zrotation
						JOINT HeadTop_End
						{
							OFFSET 0.000000 19.645248 2.611582
							CHANNELS 6 Xposition Yposition Zposition Xrotation Yrotation Zrotation
							End Site
							{
								OFFSET 0.000000 14.113129 0.000000
							}
						}
						JOINT L_Eye
						{
							OFFSET 3.570282 7.264572 7.838836
							CHANNELS 6 Xposition Yposition Zposition Xrotation Yrotation Zrotation
							End Site
							{
								OFFSET 0.000000 14.113129 0.000000
							}
						}
						JOINT R_Eye
						{
							OFFSET -3.524154 7.264282 7.838838
							CHANNELS 6 Xposition Yposition Zposition Xrotation Yrotation Zrotation
							End Site
							{
								OFFSET 0.000000 14.113129 0.000000
							}
						}
					}
				}
				JOINT L_Shoulder
				{
					OFFSET 7.980431 21.886398 -6.266449
					CHANNELS 6 Xposition Yposition Zposition Xrotation Yrotation Zrotation
					JOINT L_Arm
					{
						OFFSET 10.677479 -5.478394 -0.078065
						CHANNELS 3 Xrotation Yrotation Zrotation
						JOINT L_ForeArm
						{
							OFFSET 27.567778 0.000015 0.000000
							CHANNELS 3 Xrotation Yrotation Zrotation
							JOINT L_Hand
							{
								OFFSET 27.500092 -0.000015 0.480016
								CHANNELS 3 Xrotation Yrotation Zrotation
								JOINT L_HandThumb1
								{
									OFFSET 5.751503 -2.607742 4.214736
									CHANNELS 6 Xposition Yposition Zposition Xrotation Yrotation Zrotation
									JOINT L_HandThumb2
									{
										OFFSET 2.728218 -1.585464 1.645159
										CHANNELS 6 Xposition Yposition Zposition Xrotation Yrotation Zrotation
										JOINT L_HandThumb3
										{
											OFFSET 2.690651 -1.563644 1.622507
											CHANNELS 6 Xposition Yposition Zposition Xrotation Yrotation Zrotation
											JOINT L_HandThumb4
											{
												OFFSET 2.811111 -1.633636 1.695147
												CHANNELS 6 Xposition Yposition Zposition Xrotation Yrotation Zrotation
												End Site
												{
													OFFSET 2.811104 -1.633652 1.695142
												}
											}
										}
									}
								}
								JOINT L_HandIndex1
								{
									OFFSET 13.704086 -1.118973 2.963548
									CHANNELS 6 Xposition Yposition Zposition Xrotation Yrotation Zrotation
									JOINT L_HandIndex2
									{
										OFFSET 2.538002 -0.000046 0.044317
										CHANNELS 3 Xrotation Yrotation Zrotation
										JOINT L_HandIndex3
										{
											OFFSET 3.551018 0.000015 0.062044
											CHANNELS 3 Xrotation Yrotation Zrotation
											JOINT L_HandIndex4
											{
												OFFSET 3.082214 0.000031 0.053894
												CHANNELS 3 Xrotation Yrotation Zrotation
												End Site
												{
													OFFSET 3.082214 0.000046 0.053895
												}
											}
										}
									}
								}
								JOINT L_HandMiddle1
								{
									OFFSET 13.314011 -0.054794 0.195248
									CHANNELS 6 Xposition Yposition Zposition Xrotation Yrotation Zrotation
									JOINT L_HandMiddle2
									{
										OFFSET 4.054405 -0.000015 0.070800
										CHANNELS 3 Xrotation Yrotation Zrotation
										JOINT L_HandMiddle3
										{
											OFFSET 2.984230 -0.000031 0.052059
											CHANNELS 3 Xrotation Yrotation Zrotation
											JOINT L_HandMiddle4
											{
												OFFSET 3.040154 -0.000031 0.053016
												CHANNELS 3 Xrotation Yrotation Zrotation
												End Site
												{
													OFFSET 3.040154 0.000000 0.053016
												}
											}
										}
									}
								}
								JOINT L_HandRing1
								{
									OFFSET 12.889366 0.014862 -3.304775
									CHANNELS 6 Xposition Yposition Zposition Xrotation Yrotation Zrotation
									JOINT L_HandRing2
									{
										OFFSET 4.066383 0.000000 0.071006
										CHANNELS 3 Xrotation Yrotation Zrotation
										JOINT L_HandRing3
										{
											OFFSET 2.688652 0.000061 0.047021
											CHANNELS 3 Xrotation Yrotation Zrotation
											JOINT L_HandRing4
											{
												OFFSET 2.892899 0.000000 0.050566
												CHANNELS 3 Xrotation Yrotation Zrotation
												End Site
												{
													OFFSET 2.892906 0.000015 0.050566
												}
											}
										}
									}
								}
								JOINT L_HandPinky1
								{
									OFFSET 12.770164 -1.052109 -6.055603
									CHANNELS 6 Xposition Yposition Zposition Xrotation Yrotation Zrotation
									JOINT L_HandPinky2
									{
										OFFSET 3.092682 -0.000046 0.054011
										CHANNELS 3 Xrotation Yrotation Zrotation
										JOINT L_HandPinky3
										{
											OFFSET 2.176254 0.000031 0.038088
											CHANNELS 3 Xrotation Yrotation Zrotation
											JOINT L_HandPinky4
											{
												OFFSET 2.208496 -0.000031 0.038607
												CHANNELS 3 Xrotation Yrotation Zrotation
												End Site
												{
													OFFSET 2.208504 -0.000031 0.038607
												}
											}
										}
									}
								}
							}
						}
					}
				}
				JOINT R_Shoulder
				{
					OFFSET -7.980434 21.886810 -6.266449
					CHANNELS 6 Xposition Yposition Zposition Xrotation Yrotation Zrotation
					JOINT R_Arm
					{
						OFFSET -10.677509 -5.479004 -0.078070
						CHANNELS 3 Xrotation Yrotation Zrotation
						JOINT R_ForeArm
						{
							OFFSET -27.567785 0.000000 -0.000000
							CHANNELS 3 Xrotation Yrotation Zrotation
							JOINT R_Hand
							{
								OFFSET -27.500015 0.000000 0.480015
								CHANNELS 3 Xrotation Yrotation Zrotation
								JOINT R_HandThumb1
								{
									OFFSET -5.971848 -2.424500 3.942988
									CHANNELS 6 Xposition Yposition Zposition Xrotation Yrotation Zrotation
									JOINT R_HandThumb2
									{
										OFFSET -2.728195 -1.584976 1.645155
										CHANNELS 6 Xposition Yposition Zposition Xrotation Yrotation Zrotation
										JOINT R_HandThumb3
										{
											OFFSET -2.690704 -1.563995 1.622524
											CHANNELS 6 Xposition Yposition Zposition Xrotation Yrotation Zrotation
											JOINT R_HandThumb4
											{
												OFFSET -2.811142 -1.633011 1.695130
												CHANNELS 6 Xposition Yposition Zposition Xrotation Yrotation Zrotation
												End Site
												{
													OFFSET -2.811142 -1.632996 1.695138
												}
											}
										}
									}
								}
								JOINT R_HandIndex1
								{
									OFFSET -13.521736 -0.054581 0.198885
									CHANNELS 6 Xposition Yposition Zposition Xrotation Yrotation Zrotation
									JOINT R_HandIndex2
									{
										OFFSET -4.381210 0.000015 0.076519
										CHANNELS 3 Xrotation Yrotation Zrotation
										JOINT R_HandIndex3
										{
											OFFSET -3.478577 0.000031 0.060751
											CHANNELS 3 Xrotation Yrotation Zrotation
											JOINT R_HandIndex4
											{
												OFFSET -6.319054 -0.000015 0.110473
												CHANNELS 3 Xrotation Yrotation Zrotation
												End Site
												{
													OFFSET -6.319061 0.000015 0.110474
												}
											}
										}
									}
								}
								JOINT R_HandRing1
								{
									OFFSET -12.702789 0.785950 -3.722343
									CHANNELS 6 Xposition Yposition Zposition Xrotation Yrotation Zrotation
									JOINT R_HandRing2
									{
										OFFSET -4.066383 0.000000 0.070999
										CHANNELS 3 Xrotation Yrotation Zrotation
										JOINT R_HandRing3
										{
											OFFSET -2.688583 0.000015 0.047006
											CHANNELS 3 Xrotation Yrotation Zrotation
											JOINT R_HandRing4
											{
												OFFSET -2.892967 -0.000015 0.050556
												CHANNELS 3 Xrotation Yrotation Zrotation
												End Site
												{
													OFFSET -2.892960 0.000015 0.050555
												}
											}
										}
									}
								}
								JOINT R_HandPinky1
								{
									OFFSET -12.544357 -0.205673 -6.499258
									CHANNELS 6 Xposition Yposition Zposition Xrotation Yrotation Zrotation
									JOINT R_HandPinky2
									{
										OFFSET -3.092621 0.000000 0.053982
										CHANNELS 3 Xrotation Yrotation Zrotation
										JOINT R_HandPinky3
										{
											OFFSET -2.176262 0.000000 0.037988
											CHANNELS 3 Xrotation Yrotation Zrotation
											JOINT R_HandPinky4
											{
												OFFSET -2.208572 0.000000 0.038550
												CHANNELS 3 Xrotation Yrotation Zrotation
												End Site
												{
													OFFSET -2.208565 0.000000 0.038550
												}
											}
										}
									}
								}
							}
						}
					}
				}
			}
		}
	}
	JOINT L_UpLeg
	{
		OFFSET 10.121319 -5.316734 0.163048
		CHANNELS 6 Xposition Yposition Zposition Xrotation Yrotation Zrotation
		JOINT L_Leg
		{
			OFFSET -0.000002 -40.854481 0.206897
			CHANNELS 3 Xrotation Yrotation Zrotation
			JOINT L_Foot
			{
				OFFSET 0.000002 -52.055374 -3.073691
				CHANNELS 3 Xrotation Yrotation Zrotation
				JOINT L_ToeBase
				{
					OFFSET 1.169127 -9.354687 13.784521
					CHANNELS 6 Xposition Yposition Zposition Xrotation Yrotation Zrotation
					JOINT L_Toe_End
					{
						OFFSET 0.516993 -0.004916 8.312323
						CHANNELS 6 Xposition Yposition Zposition Xrotation Yrotation Zrotation
						End Site
						{
							OFFSET 0.516995 -0.004916 8.312323
						}
					}
				}
			}
		}
	}
	JOINT R_UpLeg
	{
		OFFSET -10.121301 -5.316544 0.163048
		CHANNELS 6 Xposition Yposition Zposition Xrotation Yrotation Zrotation
		JOINT R_Leg
		{
			OFFSET 0.000055 -40.854687 0.206898
			CHANNELS 3 Xrotation Yrotation Zrotation
			JOINT R_Foot
			{
				OFFSET -0.000054 -52.055359 -3.073693
				CHANNELS 3 Xrotation Yrotation Zrotation
				JOINT R_ToeBase
				{
					OFFSET -1.169123 -9.354716 13.784500
					CHANNELS 6 Xposition Yposition Zposition Xrotation Yrotation Zrotation
					JOINT R_Toe_End
					{
						OFFSET -0.516972 -0.004950 8.311937
						CHANNELS 6 Xposition Yposition Zposition Xrotation Yrotation Zrotation
						End Site
						{
							OFFSET -0.516973 -0.004951 8.311935
						}
					}
				}
			}
		}
	}
}
MOTION
Frames: 4
Frame Time: 0.033333
-7.269845 94.092834 -7.205244 -1.530607 -20.618202 11.697074 -0.023073 13.157012 0.957424 5.861433 1.771876 8.020553 4.896743 1.193931 5.182715 4.881959 1.253140 5.181080 0.000005 26.776299 -4.691221 -12.620193 2.675953 4.365846 -0.000011 14.063212 3.449318 -21.383915 21.096320 -8.005783 -0.000006 19.645264 2.611585 -0.000003 -0.000000 -0.000001 3.570277 7.264573 7.838834 -0.000002 -0.000000 -0.000001 -3.524156 7.264298 7.838839 -0.000002 -0.000000 -0.000001 7.980448 21.886370 -6.266452 4.478713 -13.975537 -10.593383 -27.454659 -5.080144 -38.369657 -0.000136 -74.364818 -0.000102 18.206045 27.064210 4.463956 5.751511 -2.607736 4.214740 7.897061 0.837031 -7.338080 2.728215 -1.585426 1.645155 -1.813321 14.402750 1.838715 2.690653 -1.563669 1.622506 -3.374192 4.865359 2.679923 2.811094 -1.633645 1.695147 -0.000001 0.000006 -0.000002 13.704093 -1.118969 2.963548 0.274984 1.337319 -9.791205 0.000023 0.000599 -0.001300 -0.009496 -0.069834 0.562828 0.000000 0.000000 -0.000001 13.314014 -0.054782 0.195247 0.274389 1.335378 -9.776020 -0.000012 -0.000959 0.000608 -0.009466 -0.071073 0.562510 0.000000 0.000000 -0.000002 12.889359 0.014861 -3.304777 0.275003 1.337317 -9.792207 0.000013 0.001611 -0.000779 -0.009504 -0.071151 0.563421 -0.000000 0.000000 -0.000001 12.770171 -1.052127 -6.055604 0.938931 5.334762 -9.300972 -0.009854 -4.052304 -0.510628 -0.009513 -0.071863 0.564331 0.000000 0.000000 -0.000001 -7.980437 21.886787 -6.266447 7.864604 21.327308 8.613100 -41.032051 50.336483 23.387795 -0.000028 75.234616 0.000010 34.901519 -15.963107 5.573206 -5.971858 -2.424517 3.942986 -0.083999 -0.013430 12.150704 -2.728204 -1.584994 1.645161 -4.137341 -21.817028 -8.529492 -2.690720 -1.563974 1.622507 -5.069891 -6.656987 -5.668580 -2.811153 -1.633008 1.695144 -0.000002 0.000000 0.000004 -13.521741 -0.054571 0.198884 0.158994 -0.900618 6.556273 0.000001 0.000098 0.000099 -0.054894 0.497375 -4.177965 -0.000001 -0.000000 -0.000001 -12.702801 0.785926 -3.722350 0.158958 -0.900318 6.556071 0.000002 -0.001301 -0.000000 -0.054866 0.498975 -4.177661 0.000002 0.000000 -0.000002 -12.544354 -0.205693 -6.499257 0.158913 -0.900022 6.556068 0.000009 -0.000008 0.000110 -0.054772 0.498447 -4.177663 -0.000002 0.000001 -0.000003 10.121315 -5.316741 0.163042 -33.759784 11.413336 14.502882 33.217922 -7.986168 1.563338 3.273422 -1.572251 -18.325853 1.169128 -9.354690 13.784518 -0.000007 -0.000009 0.000007 0.516994 -0.004915 8.312326 0.000001 -0.000001 0.000000 -10.121304 -5.316521 0.163048 -40.445689 3.042743 -22.668199 64.536852 -1.109718 -9.974856 -20.234678 -1.480905 7.546283 -1.169118 -9.354713 13.784500 -0.151816 -0.000007 -0.000013 -0.516966 -0.004951 8.311935 0.000002 0.000003 0.000000 
-6.867778 94.487000 -7.620735 0.719099 -21.754195 11.860187 -0.023072 13.157009 0.957426 6.289967 2.159920 7.973213 5.192341 1.440518 5.228794 5.174128 1.507194 5.226732 -0.000004 26.776308 -4.691217 -12.493583 2.714519 4.237673 0.000002 14.063191 3.449324 -20.484837 21.092685 -8.144548 -0.000010 19.645248 2.611590 -0.000002 -0.000001 0.000000 3.570273 7.264572 7.838839 -0.000001 -0.000001 0.000000 -3.524161 7.264297 7.838844 -0.000001 -0.000001 0.000000 7.980441 21.886393 -6.266456 4.501907 -14.128482 -10.564575 -26.120872 -4.154679 -39.189112 -0.000136 -77.319524 -0.000096 17.935242 28.018881 4.611471 5.751508 -2.607740 4.214739 8.366463 2.869137 -7.463236 2.728225 -1.585440 1.645155 -2.485856 15.570576 2.197486 2.690660 -1.563635 1.622513 -3.681699 5.464439 2.820454 2.811115 -1.633642 1.695148 -0.000002 0.000003 0.000001 13.704096 -1.118976 2.963548 0.311852 1.449491 -10.724809 0.038707 0.247122 -1.972495 0.018302 0.124238 -0.985880 0.000000 -0.000001 0.000001 13.314017 -0.054796 0.195248 0.311230 1.447574 -10.709630 0.038959 0.247523 -1.986470 0.018266 0.123038 -0.986169 -0.000000 0.000001 -0.000001 12.889362 0.014859 -3.304775 0.311871 1.449491 -10.725808 0.038722 0.248121 -1.971895 0.018285 0.122941 -0.985281 0.000000 0.000000 0.000002 12.770168 -1.052122 -6.055604 1.041204 5.435588 -10.239749 0.031632 -3.803633 -2.498919 0.018273 0.122233 -0.984368 -0.000000 -0.000001 0.000001 -7.980438 21.886789 -6.266454 7.763208 21.336473 8.557422 -40.644113 49.811320 23.119781 0.000001 76.950749 -0.000017 36.244122 -18.970379 3.914167 -5.971826 -2.424520 3.942985 2.011118 -1.073097 13.096898 -2.728204 -1.585006 1.645165 -3.389990 -23.546261 -8.696197 -2.690710 -1.563984 1.622504 -4.631027 -7.485732 -5.807342 -2.811176 -1.633002 1.695143 -0.000003 0.000000 0.000004 -13.521727 -0.054564 0.198890 0.243184 -1.190706 9.073899 0.000000 0.000107 0.000196 -0.044345 0.369769 -3.111579 -0.000001 0.000001 -0.000003 -12.702787 0.785950 -3.722334 0.243134 -1.190410 9.073695 0.000001 -0.001296 0.000037 -0.044324 0.371373 -3.111275 -0.000003 -0.000001 0.000003 -12.544337 -0.205685 -6.499255 0.243079 -1.190113 9.073697 -0.000007 0.000009 0.000036 -0.044246 0.370862 -3.111297 0.000001 0.000000 -0.000000 10.121321 -5.316711 0.163043 -35.148191 10.953028 14.960035 32.347274 -8.126409 1.582426 3.966959 0.071687 -18.259297 1.169129 -9.354694 13.784518 -0.000005 -0.000004 0.000009 0.516994 -0.004915 8.312328 0.000001 -0.000002 0.000000 -10.121307 -5.316543 0.163048 -42.353054 3.655708 -21.149898 63.326092 -0.791164 -9.969364 -19.229344 -1.471574 7.577575 -1.169115 -9.354717 13.784502 -0.001848 -0.000031 0.000007 -0.516975 -0.004952 8.311939 0.000003 -0.000000 -0.000000 
-6.430169 94.828369 -7.883764 2.789168 -22.414541 11.891790 -0.023063 13.157004 0.957425 6.611497 2.373177 7.876342 5.406866 1.556308 5.201210 5.387658 1.627225 5.198028 -0.000008 26.776287 -4.691221 -12.198224 2.771761 4.182407 -0.000016 14.063246 3.449312 -19.867169 21.242855 -7.973383 -0.000004 19.645233 2.611586 -0.000001 0.000000 -0.000001 3.570273 7.264572 7.838839 0.000000 0.000000 -0.000001 -3.524152 7.264282 7.838845 0.000000 0.000000 -0.000001 7.980439 21.886393 -6.266448 4.458447 -14.134461 -10.542507 -24.779896 -3.414525 -40.088050 -0.000174 -79.562046 -0.000115 18.192151 29.134117 4.538107 5.751514 -2.607758 4.214737 8.847480 4.860676 -7.603070 2.728212 -1.585479 1.645155 -3.155126 16.705021 2.549171 2.690667 -1.563669 1.622512 -3.984205 6.048235 2.957312 2.811100 -1.633614 1.695150 -0.000002 0.000002 0.000001 13.704091 -1.119011 2.963547 0.351006 1.562368 -11.669417 0.116696 0.631952 -5.074798 0.051376 0.317747 -2.536844 0.000000 -0.000001 0.000001 13.314021 -0.054789 0.195247 0.350347 1.560456 -11.654211 0.116970 0.632314 -5.088780 0.051275 0.316553 -2.537151 -0.000001 -0.000001 0.000003 12.889352 0.014829 -3.304777 0.351025 1.562365 -11.670419 0.116753 0.632947 -5.074202 0.051350 0.316447 -2.536247 0.000000 0.000000 -0.000002 12.770161 -1.052124 -6.055604 1.146352 5.535864 -11.189786 0.113384 -3.419527 -5.595490 0.051340 0.315752 -2.535347 -0.000000 0.000000 -0.000001 -7.980434 21.886797 -6.266451 7.755524 21.416092 8.516775 -40.222724 49.164057 22.790287 -0.000049 78.526500 0.000023 36.987851 -21.544310 2.762193 -5.971838 -2.424520 3.942988 4.102163 -2.033385 14.022584 -2.728209 -1.584964 1.645160 -2.649648 -25.271335 -8.867397 -2.690703 -1.563986 1.622509 -4.195537 -8.313517 -5.946019 -2.811156 -1.632990 1.695139 -0.000004 0.000000 0.000002 -13.521718 -0.054596 0.198889 0.342833 -1.484509 11.660693 0.000022 0.000087 0.000332 -0.031053 0.239061 -2.017361 0.000002 0.000000 0.000001 -12.702794 0.785919 -3.722342 0.342771 -1.484215 11.660490 0.000010 -0.001299 0.000014 -0.031027 0.240677 -2.017068 0.000000 -0.000001 0.000001 -12.544339 -0.205690 -6.499253 0.342715 -1.483922 11.660474 0.000006 0.000002 0.000053 -0.030993 0.240161 -2.017061 0.000001 -0.000001 0.000001 10.121321 -5.316727 0.163041 -36.639648 10.192802 15.286539 31.796747 -7.076175 1.819419 4.509535 0.250233 -18.422333 1.169130 -9.354692 13.784519 -0.000006 0.000003 0.000000 0.516999 -0.004915 8.312323 0.000001 -0.000002 0.000000 -10.121303 -5.316541 0.163044 -44.043758 3.678199 -20.091099 62.129600 -0.207272 -9.957203 -18.381882 -1.585882 7.968702 -1.169125 -9.354714 13.784502 -0.000002 -0.000000 0.000004 -0.516973 -0.004953 8.311939 0.000003 0.000002 -0.000001 
-5.934606 95.088333 -7.978401 4.353180 -22.694606 11.695972 -0.023069 13.157007 0.957425 6.926488 2.398071 7.743828 5.622831 1.533316 5.108424 5.604390 1.610490 5.103019 0.000004 26.776306 -4.691217 -11.844194 2.806258 4.265040 -0.000004 14.063193 3.449313 -19.601028 21.459377 -7.579381 -0.000002 19.645248 2.611577 -0.000001 0.000000 -0.000000 3.570279 7.264587 7.838829 -0.000001 -0.000000 -0.000000 -3.524154 7.264297 7.838833 -0.000001 -0.000000 -0.000000 7.980449 21.886396 -6.266451 4.286047 -13.910286 -10.515229 -23.489758 -3.098604 -41.031105 -0.000255 -80.996632 -0.000186 18.801163 30.347029 4.669959 5.751503 -2.607737 4.214737 9.331737 6.778820 -7.754822 2.728216 -1.585464 1.645153 -3.806581 17.783953 2.886874 2.690667 -1.563639 1.622522 -4.275521 6.605332 3.087883 2.811112 -1.633607 1.695152 -0.000005 0.000009 -0.000000 13.704094 -1.119000 2.963547 0.391758 1.673893 -12.608331 0.213342 1.004816 -8.119345 0.088919 0.506680 -4.058689 0.000000 0.000001 -0.000002 13.314012 -0.054781 0.195248 0.391075 1.671999 -12.593139 0.213622 1.005188 -8.133316 0.088747 0.505493 -4.058998 0.000000 0.000001 -0.000006 12.889361 0.014856 -3.304777 0.391777 1.673892 -12.609331 0.213436 1.005810 -8.118750 0.088883 0.505382 -4.058085 0.000000 -0.000001 0.000001 12.770171 -1.052118 -6.055606 1.252523 5.633833 -12.134341 0.213622 -3.047553 -8.632964 0.088872 0.504698 -4.057202 0.000000 -0.000001 -0.000001 -7.980434 21.886787 -6.266446 7.842246 21.549838 8.498166 -40.349646 48.271880 22.811339 0.000049 80.071271 -0.000073 37.198836 -23.572651 2.145694 -5.971843 -2.424515 3.942985 6.147507 -2.883799 14.908508 -2.728208 -1.585011 1.645163 -1.932862 -26.954157 -9.039664 -2.690711 -1.563994 1.622514 -3.772959 -9.122005 -6.081612 -2.811163 -1.633005 1.695144 -0.000003 -0.000001 0.000002 -13.521731 -0.054583 0.198884 0.456740 -1.776070 14.271510 0.000002 0.000091 0.000097 -0.015111 0.107501 -0.913697 -0.000001 -0.000000 0.000001 -12.702784 0.785925 -3.722347 0.456666 -1.775782 14.271306 -0.000000 -0.001310 -0.000003 -0.015098 0.109101 -0.913397 0.000000 -0.000000 -0.000000 -12.544354 -0.205679 -6.499252 0.456580 -1.775489 14.271307 0.000011 -0.000009 -0.000016 -0.015077 0.108599 -0.913387 -0.000002 -0.000001 -0.000001 10.121319 -5.316710 0.163040 -38.061219 9.414127 15.571810 31.755155 -6.237904 2.088368 4.780011 0.197344 -18.571377 1.169128 -9.354696 13.784524 0.000012 0.000005 0.000005 0.516994 -0.004915 8.312325 0.000001 -0.000001 -0.000000 -10.121305 -5.316527 0.163053 -45.234191 3.314810 -19.669744 61.065299 0.592549 -9.685063 -17.743522 -1.710719 8.552994 -1.169115 -9.354718 13.784502 -0.021283 0.000019 -0.000005 -0.516979 -0.004952 8.311939 0.000003 -0.000001 -0.000001 
